<?xml version="1.0" encoding="UTF-8"?>
<svg xmlns="http://www.w3.org/2000/svg" xmlns:xlink="http://www.w3.org/1999/xlink" width="16pt" height="16pt" viewBox="0 0 16 16" version="1.1">
<g id="surface1">
<path style=" stroke:none;fill-rule:nonzero;fill:rgb(0%,0%,0%);fill-opacity:1;" d="M 14.910156 4.175781 C 14.195312 2.953125 13.226562 1.980469 12.003906 1.265625 C 10.777344 0.554688 9.441406 0.195312 7.992188 0.195312 C 6.542969 0.195312 5.203125 0.554688 3.980469 1.265625 C 2.753906 1.980469 1.785156 2.953125 1.070312 4.175781 C 0.355469 5.398438 0 6.738281 0 8.1875 C 0 9.929688 0.507812 11.496094 1.523438 12.886719 C 2.539062 14.277344 3.855469 15.238281 5.464844 15.773438 C 5.648438 15.808594 5.789062 15.78125 5.878906 15.699219 C 5.96875 15.617188 6.015625 15.511719 6.015625 15.386719 C 6.015625 15.367188 6.011719 15.179688 6.007812 14.824219 C 6.003906 14.472656 6.003906 14.164062 6.003906 13.898438 L 5.765625 13.941406 C 5.613281 13.96875 5.417969 13.980469 5.1875 13.976562 C 4.953125 13.976562 4.714844 13.949219 4.464844 13.90625 C 4.214844 13.859375 3.980469 13.757812 3.765625 13.59375 C 3.550781 13.429688 3.398438 13.214844 3.308594 12.953125 L 3.203125 12.714844 C 3.136719 12.554688 3.027344 12.378906 2.878906 12.183594 C 2.726562 11.988281 2.578125 11.855469 2.425781 11.789062 L 2.351562 11.734375 C 2.304688 11.699219 2.257812 11.660156 2.214844 11.609375 C 2.175781 11.5625 2.144531 11.511719 2.121094 11.464844 C 2.101562 11.417969 2.121094 11.375 2.175781 11.34375 C 2.230469 11.3125 2.332031 11.296875 2.476562 11.296875 L 2.683594 11.328125 C 2.824219 11.359375 2.996094 11.441406 3.199219 11.578125 C 3.402344 11.71875 3.574219 11.898438 3.703125 12.121094 C 3.863281 12.40625 4.054688 12.621094 4.28125 12.769531 C 4.507812 12.921875 4.734375 12.996094 4.964844 12.996094 C 5.191406 12.996094 5.390625 12.976562 5.554688 12.941406 C 5.722656 12.90625 5.878906 12.855469 6.023438 12.785156 C 6.085938 12.320312 6.257812 11.964844 6.535156 11.714844 C 6.140625 11.671875 5.785156 11.609375 5.46875 11.527344 C 5.152344 11.445312 4.828125 11.308594 4.488281 11.121094 C 4.152344 10.933594 3.875 10.703125 3.652344 10.425781 C 3.429688 10.148438 3.25 9.78125 3.105469 9.332031 C 2.964844 8.878906 2.894531 8.359375 2.894531 7.769531 C 2.894531 6.929688 3.167969 6.214844 3.714844 5.625 C 3.457031 4.996094 3.480469 4.289062 3.789062 3.503906 C 3.988281 3.441406 4.289062 3.488281 4.683594 3.644531 C 5.078125 3.800781 5.367188 3.933594 5.550781 4.046875 C 5.734375 4.15625 5.882812 4.25 5.992188 4.328125 C 6.640625 4.144531 7.304688 4.054688 7.992188 4.054688 C 8.679688 4.054688 9.34375 4.144531 9.988281 4.328125 L 10.386719 4.078125 C 10.65625 3.910156 10.976562 3.757812 11.34375 3.617188 C 11.710938 3.480469 11.992188 3.441406 12.183594 3.503906 C 12.496094 4.289062 12.523438 4.996094 12.269531 5.628906 C 12.816406 6.214844 13.089844 6.929688 13.089844 7.769531 C 13.089844 8.359375 13.019531 8.882812 12.878906 9.335938 C 12.734375 9.792969 12.550781 10.15625 12.324219 10.429688 C 12.101562 10.703125 11.820312 10.933594 11.484375 11.121094 C 11.148438 11.308594 10.820312 11.445312 10.503906 11.527344 C 10.1875 11.609375 9.832031 11.671875 9.4375 11.714844 C 9.800781 12.027344 9.980469 12.519531 9.980469 13.191406 L 9.980469 15.386719 C 9.980469 15.511719 10.023438 15.617188 10.109375 15.699219 C 10.195312 15.78125 10.332031 15.808594 10.519531 15.773438 C 12.128906 15.238281 13.441406 14.277344 14.460938 12.886719 C 15.476562 11.492188 15.984375 9.929688 15.984375 8.1875 C 15.984375 6.738281 15.625 5.398438 14.910156 4.175781 Z M 14.910156 4.175781 "/>
</g>
</svg>
